# xmcd
#
# Track frame offsets:
#	150
#	20643
#	39200
#	61841
#	79423
#	99705
#	116147
#	133822
#	152626
#	170619
#	196122
#	213156
#	231969
#	249864
#	269954
#	292894
#	312896
#
# Disc length: 4441 seconds
#
# Revision: 0
# Processed by: cddbd v1.5.2PL0 Copyright (c) Steve Scherf et al.
# Submitted via: dBpowerAMP V4.0
#
DISCID=f0115711
DTITLE=Ronnie Baker Brooks - The Torch
DYEAR=2006
DGENRE=Blues
TTITLE0=Born In Chicago
TTITLE1=Are You Free For Me
TTITLE2=It's On
TTITLE3=A Long Goodbye
TTITLE4=Love Again
TTITLE5=You Wrong For That Now
TTITLE6=Half
TTITLE7=Be A Good Man
TTITLE8=Train
TTITLE9=Other Side Of Love
TTITLE10=If It Don't Make Dollars, Then It Don't Make Sense
TTITLE11=Can't You See
TTITLE12=It's All About You
TTITLE13=Mack Momma
TTITLE14=The Torch Of The Blues
TTITLE15=Love Me Baby
TTITLE16=A Whole Lot Better Too
EXTD=
EXTT0=
EXTT1=
EXTT2=
EXTT3=
EXTT4=
EXTT5=
EXTT6=
EXTT7=
EXTT8=
EXTT9=
EXTT10=
EXTT11=
EXTT12=
EXTT13=
EXTT14=
EXTT15=
EXTT16=
PLAYORDER=
